<svg viewBox="0 0 512 512" xmlns="http://www.w3.org/2000/svg">
	<!-- Background gradients optimized for app icon -->
	<defs>
		<linearGradient id="skyGradient" x1="0%" y1="0%" x2="0%" y2="100%">
			<stop offset="0%" style="stop-color:#FF7F50;stop-opacity:1" />
			<stop offset="100%" style="stop-color:#1E90FF;stop-opacity:1" />
		</linearGradient>
		<linearGradient id="oceanGradient" x1="0%" y1="0%" x2="0%" y2="100%">
			<stop offset="0%" style="stop-color:#4169E1;stop-opacity:1" />
			<stop offset="100%" style="stop-color:#000080;stop-opacity:0.8" />
		</linearGradient>
		<radialGradient id="sunGlow" cx="50%" cy="50%" r="50%" fx="50%" fy="50%">
			<stop offset="0%" style="stop-color:#FFFFFF;stop-opacity:0.7" />
			<stop offset="100%" style="stop-color:#FFFFFF;stop-opacity:0" />
		</radialGradient>
		<!-- Shadow for 3D effect -->
		<filter id="shadow" x="-20%" y="-20%" width="140%" height="140%">
			<feDropShadow dx="0" dy="3" stdDeviation="5" flood-color="#000000" flood-opacity="0.3"/>
		</filter>
	</defs>

	<!-- App icon background with rounded corners -->
	<rect x="0" y="0" width="512" height="512" rx="108" ry="108" fill="url(#skyGradient)" />

	<!-- Ocean area -->
	<path d="M0,300 C130,270 380,330 512,290 L512,512 L0,512 Z" fill="url(#oceanGradient)" />

	<!-- Simplified Maui mountains silhouette -->
	<path d="M0,300 L90,220 L160,260 L240,180 L300,220 L360,150 L430,240 L512,170 L512,300 Z" fill="#228B22" stroke="#006400" stroke-width="1" />

	<!-- Sun/Alarm Clock with minimal design -->
	<circle cx="256" cy="180" r="88" fill="url(#sunGlow)" filter="url(#shadow)" />
	<circle cx="256" cy="180" r="80" fill="#FFD700" stroke="#FFFFFF" stroke-width="6" />
	<circle cx="256" cy="180" r="65" fill="none" stroke="#FFFFFF" stroke-width="3" />

	<!-- Clock hands - static for icon -->
	<line x1="256" y1="180" x2="256" y2="130" stroke="#FFFFFF" stroke-width="6" stroke-linecap="round" />
	<line x1="256" y1="180" x2="290" y2="210" stroke="#FFFFFF" stroke-width="6" stroke-linecap="round" />

	<!-- Central dot on clock -->
	<circle cx="256" cy="180" r="6" fill="#FFFFFF" />

	<!-- One stylized palm tree -->
	<g transform="translate(-20, 0) scale(0.8)">
		<path d="M400,300 C400,300 412,280 418,260 C424,240 418,225 412,220 C406,215 394,218 397,225 C400,235 406,238 403,250 C400,262 388,265 391,275 C394,285 400,275 397,290 C394,300 400,300 400,300 Z" fill="#000000" />
		<path d="M400,300 L400,335" stroke="#000000" stroke-width="8" />
		<path d="M385,245 C360,230 340,235 365,250 C375,255 380,250 385,245 Z" fill="#000000" />
		<path d="M380,225 C355,205 335,210 360,230 C370,235 375,230 380,225 Z" fill="#000000" />
		<path d="M415,235 C440,215 460,220 435,240 C425,245 420,240 415,235 Z" fill="#000000" />
		<path d="M418,215 C443,195 463,200 438,220 C428,225 423,220 418,215 Z" fill="#000000" />
	</g>

	<!-- Simplified ocean waves -->
	<path d="M0,400 C32,390 64,410 96,400 C128,390 160,410 192,400 C224,390 256,410 288,400 C320,390 352,410 384,400 C416,390 448,410 480,400 C512,390 544,410 576,400" fill="none" stroke="#FFFFFF" stroke-width="2" opacity="0.6" />
	<path d="M0,420 C32,410 64,430 96,420 C128,410 160,430 192,420 C224,410 256,430 288,420 C320,410 352,430 384,420 C416,410 448,430 480,420 C512,410 544,430 576,420" fill="none" stroke="#FFFFFF" stroke-width="1.5" opacity="0.4" />

	<!-- App name - smaller and more compact -->
	<text x="256" y="400" font-family="Arial, sans-serif" font-size="32" font-weight="bold" text-anchor="middle" fill="#FFFFFF" stroke="#000000" stroke-width="1">ALARM MAUI</text>

	<!-- Small static stars -->
	<circle cx="100" cy="80" r="1.5" fill="#FFFFFF" />
	<circle cx="420" cy="100" r="1.5" fill="#FFFFFF" />
	<circle cx="180" cy="130" r="1.5" fill="#FFFFFF" />
	<circle cx="350" cy="90" r="1.5" fill="#FFFFFF" />
</svg>