<svg viewBox="0 0 128 128" xmlns="http://www.w3.org/2000/svg">
	<!-- Improved background gradient -->
	<defs>
		<linearGradient id="skyGradient" x1="0%" y1="0%" x2="0%" y2="100%">
			<stop offset="0%" style="stop-color:#7B68EE;stop-opacity:1">
				<animate attributeName="stop-color" values="#7B68EE;#9370DB;#7B68EE" dur="10s" repeatCount="indefinite" />
			</stop>
			<stop offset="100%" style="stop-color:#512BD4;stop-opacity:1">
				<animate attributeName="stop-color" values="#512BD4;#6C3CE3;#512BD4" dur="10s" repeatCount="indefinite" />
			</stop>
		</linearGradient>
		<linearGradient id="oceanGradient" x1="0%" y1="0%" x2="0%" y2="100%">
			<stop offset="0%" style="stop-color:#4B0082;stop-opacity:1" />
			<stop offset="100%" style="stop-color:#27104A;stop-opacity:1" />
		</linearGradient>
		<radialGradient id="sunGlow" cx="50%" cy="50%" r="50%" fx="50%" fy="50%">
			<stop offset="0%" style="stop-color:#FFFFFF;stop-opacity:0.8" />
			<stop offset="100%" style="stop-color:#FFFFFF;stop-opacity:0">
				<animate attributeName="stop-opacity" values="0;0.1;0;0.1;0" dur="4s" repeatCount="indefinite" />
			</stop>
		</radialGradient>
	</defs>

	<!-- Background -->
	<rect x="0" y="0" width="128" height="128" fill="url(#skyGradient)" />

	<!-- Ocean -->
	<path d="M0,85 Q32,82 64,85 Q96,88 128,85 L128,128 L0,128 Z" fill="url(#oceanGradient)">
		<animate attributeName="d" values="M0,85 Q32,82 64,85 Q96,88 128,85 L128,128 L0,128 Z; M0,86 Q32,84 64,86 Q96,88 128,86 L128,128 L0,128 Z; M0,85 Q32,82 64,85 Q96,88 128,85 L128,128 L0,128 Z" dur="12s" repeatCount="indefinite" />
	</path>

	<!-- Sun/Alarm Clock with subtle glow -->
	<circle cx="64" cy="50" r="30" fill="url(#sunGlow)" />
	<circle cx="64" cy="50" r="26" fill="#FFD700" stroke="#FFFFFF" stroke-width="2">
		<animate attributeName="fill" values="#FFD700;#FFC125;#FFD700" dur="7s" repeatCount="indefinite" />
	</circle>
	<circle cx="64" cy="50" r="20" fill="none" stroke="#FFFFFF" stroke-width="1" />

	<!-- Clock hands -->
	<line x1="64" y1="50" x2="64" y2="30" stroke="#FFFFFF" stroke-width="2" stroke-linecap="round">
		<animateTransform attributeName="transform" type="rotate" from="0 64 50" to="360 64 50" dur="60s" repeatCount="indefinite" />
	</line>
	<line x1="64" y1="50" x2="79" y2="58" stroke="#FFFFFF" stroke-width="2" stroke-linecap="round">
		<animateTransform attributeName="transform" type="rotate" from="0 64 50" to="360 64 50" dur="3600s" repeatCount="indefinite" />
	</line>

	<!-- Island silhouette -->
	<path d="M0,85 L13,81 L26,83 L39,79 L52,82 L64,76 L77,81 L90,80 L103,83 L116,79 L128,82 L128,85 Z" fill="#411AA7" />

	<!-- Left palm tree -->
	<g transform="translate(32, 85) scale(0.2)">
		<path d="M0,-80 C5,-95 15,-100 25,-90 C35,-80 30,-65 20,-60 L15,-55 L25,-70 C45,-85 60,-70 50,-55 C40,-40 25,-35 15,-30 L30,-45 C50,-50 60,-30 45,-20 C30,-10 10,-10 0,0 L-5,-15 C-25,-35 -15,-55 0,-45 C15,-35 15,-25 10,-15 L0,-25 C-20,-45 -10,-70 5,-60 C20,-50 15,-35 10,-25 L0,-40 C-10,-60 5,-80 0,-80 Z" fill="#411AA7" />
		<path d="M0,0 L0,80" stroke="#35147A" stroke-width="12" stroke-linecap="round" />
	</g>

	<!-- Right palm tree -->
	<g transform="translate(96, 85) scale(0.2)">
		<path d="M0,-80 C-5,-95 -15,-100 -25,-90 C-35,-80 -30,-65 -20,-60 L-15,-55 L-25,-70 C-45,-85 -60,-70 -50,-55 C-40,-40 -25,-35 -15,-30 L-30,-45 C-50,-50 -60,-30 -45,-20 C-30,-10 -10,-10 0,0 L5,-15 C25,-35 15,-55 0,-45 C-15,-35 -15,-25 -10,-15 L0,-25 C20,-45 10,-70 -5,-60 C-20,-50 -15,-35 -10,-25 L0,-40 C10,-60 -5,-80 0,-80 Z" fill="#411AA7" />
		<path d="M0,0 L0,80" stroke="#35147A" stroke-width="12" stroke-linecap="round" />
	</g>

	<!-- Subtle ocean waves -->
	<path d="M0,95 C10,94 20,96 30,95 C40,94 50,96 60,95 C70,94 80,96 90,95 C100,94 110,96 120,95" fill="none" stroke="#FFFFFF" stroke-width="0.8" opacity="0.25">
		<animateTransform attributeName="transform" type="translate" values="0,0; -20,0; 0,0" dur="8s" repeatCount="indefinite" />
	</path>
	<path d="M0,100 C10,99 20,101 30,100 C40,99 50,101 60,100 C70,99 80,101 90,100 C100,99 110,101 120,100" fill="none" stroke="#FFFFFF" stroke-width="0.6" opacity="0.2">
		<animateTransform attributeName="transform" type="translate" values="0,0; -15,0; 0,0" dur="10s" repeatCount="indefinite" />
	</path>

	<!-- Loading animation - rotating dots -->
	<g id="loadingDots">
		<!-- Loading dots -->
		<circle cx="44" cy="115" r="3" fill="#FFFFFF">
			<animate attributeName="opacity" values="0.2;1;0.2" dur="1.5s" begin="0s" repeatCount="indefinite" />
		</circle>
		<circle cx="54" cy="115" r="3" fill="#FFFFFF">
			<animate attributeName="opacity" values="0.2;1;0.2" dur="1.5s" begin="0.25s" repeatCount="indefinite" />
		</circle>
		<circle cx="64" cy="115" r="3" fill="#FFFFFF">
			<animate attributeName="opacity" values="0.2;1;0.2" dur="1.5s" begin="0.5s" repeatCount="indefinite" />
		</circle>
		<circle cx="74" cy="115" r="3" fill="#FFFFFF">
			<animate attributeName="opacity" values="0.2;1;0.2" dur="1.5s" begin="0.75s" repeatCount="indefinite" />
		</circle>
		<circle cx="84" cy="115" r="3" fill="#FFFFFF">
			<animate attributeName="opacity" values="0.2;1;0.2" dur="1.5s" begin="1s" repeatCount="indefinite" />
		</circle>
	</g>

	<!-- Pulse effect around clock -->
	<circle cx="64" cy="50" r="32" fill="none" stroke="#FFFFFF" stroke-width="0.5" opacity="0">
		<animate attributeName="r" values="32;40" dur="2s" repeatCount="indefinite" />
		<animate attributeName="opacity" values="0.6;0" dur="2s" repeatCount="indefinite" />
	</circle>

	<!-- App name with better typography -->
	<text x="64" y="105" font-family="Arial, sans-serif" font-size="12" font-weight="bold" text-anchor="middle" fill="#FFFFFF" stroke="#000000" stroke-width="0.3" stroke-opacity="0.5">
		ALARM MAUI
	</text>
</svg>